{"accessors":{"accessor_0":{"bufferView":"bufferView_0","byteOffset":0,"byteStride":0,"componentType":5126,"count":216,"min":[-844,0,-306],"max":[68,464,1202],"type":"VEC3"},"accessor_1":{"bufferView":"bufferView_0","byteOffset":2592,"byteStride":0,"componentType":5126,"count":216,"min":[0,-0.8506510257720947,0.5257310271263123],"max":[0,-0.8506510257720947,0.5257310271263123],"type":"VEC3"},"accessor_2":{"bufferView":"bufferView_0","byteOffset":5184,"byteStride":0,"componentType":5126,"count":216,"min":[-8.24219036102295,-7.242189884185791],"max":[8.66405963897705,9.66405963897705],"type":"VEC2"},"accessor_3":{"bufferView":"bufferView_1","byteOffset":0,"byteStride":0,"componentType":5123,"count":324,"min":[0],"max":[215],"type":"SCALAR"},"accessor_4":{"bufferView":"bufferView_0","byteOffset":6912,"byteStride":0,"componentType":5126,"count":1776,"min":[-612.4000244140625,0,-50.399600982666016],"max":[-163.60000610351562,149.9510040283203,424.3999938964844],"type":"VEC3"},"accessor_5":{"bufferView":"bufferView_0","byteOffset":28224,"byteStride":0,"componentType":5126,"count":1776,"min":[0,-0.8506510257720947,0.5257310271263123],"max":[0,-0.8506510257720947,0.5257310271263123],"type":"VEC3"},"accessor_6":{"bufferView":"bufferView_0","byteOffset":49536,"byteStride":0,"componentType":5126,"count":1776,"min":[0.01953130029141903,1.01171875],"max":[0.984375,1.988281011581421],"type":"VEC2"},"accessor_7":{"bufferView":"bufferView_1","byteOffset":648,"byteStride":0,"componentType":5123,"count":4572,"min":[0],"max":[1775],"type":"SCALAR"},"accessor_8":{"bufferView":"bufferView_0","byteOffset":63744,"byteStride":0,"componentType":5126,"count":8376,"min":[-831.7360229492188,0.13194499909877777,-287.7359924316406],"max":[55.73550033569336,199.41799926757812,1165.739990234375],"type":"VEC3"},"accessor_9":{"bufferView":"bufferView_0","byteOffset":164256,"byteStride":0,"componentType":5126,"count":8376,"min":[-0.44286298751831055,-0.9510560035705566,-0.864188015460968],"max":[0.9510560035705566,0.44286298751831055,0.7165669798851013],"type":"VEC3"},"accessor_10":{"bufferView":"bufferView_0","byteOffset":264768,"byteStride":0,"componentType":5126,"count":8376,"min":[0.0078125,0.2460940033197403],"max":[0.9765629768371582,2.828130006790161],"type":"VEC2"},"accessor_11":{"bufferView":"bufferView_1","byteOffset":9792,"byteStride":0,"componentType":5123,"count":27882,"min":[0],"max":[8375],"type":"SCALAR"},"accessor_12":{"bufferView":"bufferView_0","byteOffset":331776,"byteStride":0,"componentType":5126,"count":56,"min":[-768,72,-298.8420104980469],"max":[-8,376,1194],"type":"VEC3"},"accessor_13":{"bufferView":"bufferView_0","byteOffset":332448,"byteStride":0,"componentType":5126,"count":56,"min":[0,-0.8506510257720947,0.5257310271263123],"max":[0,-0.8506510257720947,0.5257310271263123],"type":"VEC3"},"accessor_14":{"bufferView":"bufferView_0","byteOffset":333120,"byteStride":0,"componentType":5126,"count":56,"min":[-2.334700107574463,0.7148439884185791],"max":[0.4621720016002655,3.203130006790161],"type":"VEC2"},"accessor_15":{"bufferView":"bufferView_1","byteOffset":65556,"byteStride":0,"componentType":5123,"count":108,"min":[0],"max":[55],"type":"SCALAR"},"accessor_16":{"bufferView":"bufferView_0","byteOffset":333568,"byteStride":0,"componentType":5126,"count":4296,"min":[-672,1.9989999532699585,-306],"max":[-104,464,1080],"type":"VEC3"},"accessor_17":{"bufferView":"bufferView_0","byteOffset":385120,"byteStride":0,"componentType":5126,"count":4296,"min":[0,-0.8506510257720947,0.5257310271263123],"max":[0,-0.8506510257720947,0.5257310271263123],"type":"VEC3"},"accessor_18":{"bufferView":"bufferView_0","byteOffset":436672,"byteStride":0,"componentType":5126,"count":4296,"min":[-42.5625,-41.5625],"max":[42.5625,23.5625],"type":"VEC2"},"accessor_19":{"bufferView":"bufferView_1","byteOffset":65772,"byteStride":0,"componentType":5123,"count":7512,"min":[0],"max":[4295],"type":"SCALAR"},"accessor_20":{"bufferView":"bufferView_0","byteOffset":471040,"byteStride":0,"componentType":5126,"count":2112,"min":[-587.1119995117188,236.01199340820312,-266.6419982910156],"max":[-188.88699340820312,394.43798828125,1196.0999755859375],"type":"VEC3"},"accessor_21":{"bufferView":"bufferView_0","byteOffset":496384,"byteStride":0,"componentType":5126,"count":2112,"min":[-0.864188015460968,-0.8506510257720947,-0.7165669798851013],"max":[0.9510560035705566,0.9510560035705566,0.9554229974746704],"type":"VEC3"},"accessor_22":{"bufferView":"bufferView_0","byteOffset":521728,"byteStride":0,"componentType":5126,"count":2112,"min":[0.0019531298894435167,1.0078125],"max":[0.9960939884185791,1.9902340173721313],"type":"VEC2"},"accessor_23":{"bufferView":"bufferView_1","byteOffset":80796,"byteStride":0,"componentType":5123,"count":9432,"min":[0],"max":[2111],"type":"SCALAR"},"accessor_24":{"bufferView":"bufferView_0","byteOffset":538624,"byteStride":0,"componentType":5126,"count":426,"min":[-610.8690185546875,61.89619827270508,-47.471500396728516],"max":[-165.13099670410156,151.531005859375,420.47100830078125],"type":"VEC3"},"accessor_25":{"bufferView":"bufferView_0","byteOffset":543736,"byteStride":0,"componentType":5126,"count":426,"min":[0,-0.8506510257720947,0.5257310271263123],"max":[0,-0.8506510257720947,0.5257310271263123],"type":"VEC3"},"accessor_26":{"bufferView":"bufferView_0","byteOffset":548848,"byteStride":0,"componentType":5126,"count":426,"min":[0,1.00390625],"max":[1.3828099966049194,1.9921879768371582],"type":"VEC2"},"accessor_27":{"bufferView":"bufferView_1","byteOffset":99660,"byteStride":0,"componentType":5123,"count":1044,"min":[0],"max":[425],"type":"SCALAR"},"accessor_28":{"bufferView":"bufferView_0","byteOffset":552256,"byteStride":0,"componentType":5126,"count":536,"min":[-813.0499877929688,0.07788469642400742,159],"max":[36.51969909667969,30.065900802612305,287],"type":"VEC3"},"accessor_29":{"bufferView":"bufferView_0","byteOffset":558688,"byteStride":0,"componentType":5126,"count":536,"min":[0,-0.8506510257720947,0.5257310271263123],"max":[0,-0.8506510257720947,0.5257310271263123],"type":"VEC3"},"accessor_30":{"bufferView":"bufferView_0","byteOffset":565120,"byteStride":0,"componentType":5126,"count":536,"min":[-0.7109379768371582,0.9648436903953552],"max":[1.503909945487976,2.34375],"type":"VEC2"},"accessor_31":{"bufferView":"bufferView_1","byteOffset":101748,"byteStride":0,"componentType":5123,"count":1416,"min":[0],"max":[535],"type":"SCALAR"},"accessor_32":{"bufferView":"bufferView_0","byteOffset":569408,"byteStride":0,"componentType":5126,"count":616,"min":[-816,92,-278],"max":[40,416,1174],"type":"VEC3"},"accessor_33":{"bufferView":"bufferView_0","byteOffset":576800,"byteStride":0,"componentType":5126,"count":616,"min":[0,-0.8506510257720947,0.5257310271263123],"max":[0,-0.8506510257720947,0.5257310271263123],"type":"VEC3"},"accessor_34":{"bufferView":"bufferView_0","byteOffset":584192,"byteStride":0,"componentType":5126,"count":616,"min":[-1.0208300352096558,0.8697919845581055],"max":[1.0208300352096558,5.109379768371582],"type":"VEC2"},"accessor_35":{"bufferView":"bufferView_1","byteOffset":104580,"byteStride":0,"componentType":5123,"count":924,"min":[0],"max":[615],"type":"SCALAR"},"accessor_36":{"bufferView":"bufferView_0","byteOffset":589120,"byteStride":0,"componentType":5126,"count":1496,"min":[-828,16,-290],"max":[52,448,1195],"type":"VEC3"},"accessor_37":{"bufferView":"bufferView_0","byteOffset":607072,"byteStride":0,"componentType":5126,"count":1496,"min":[0,-0.8506510257720947,0.5257310271263123],"max":[0,-0.8506510257720947,0.5257310271263123],"type":"VEC3"},"accessor_38":{"bufferView":"bufferView_0","byteOffset":625024,"byteStride":0,"componentType":5126,"count":1496,"min":[-0.859375,-0.34375],"max":[0.859375,3.46875],"type":"VEC2"},"accessor_39":{"bufferView":"bufferView_1","byteOffset":106428,"byteStride":0,"componentType":5123,"count":2742,"min":[0],"max":[1495],"type":"SCALAR"},"accessor_40":{"bufferView":"bufferView_0","byteOffset":636992,"byteStride":0,"componentType":5126,"count":4698,"min":[-840,0,-306],"max":[64,468,1202],"type":"VEC3"},"accessor_41":{"bufferView":"bufferView_0","byteOffset":693368,"byteStride":0,"componentType":5126,"count":4698,"min":[0,-0.8506510257720947,0.5257310271263123],"max":[0,-0.8506510257720947,0.5257310271263123],"type":"VEC3"},"accessor_42":{"bufferView":"bufferView_0","byteOffset":749744,"byteStride":0,"componentType":5126,"count":4698,"min":[-6.90625,-11.8125],"max":[6.59375,20.16670036315918],"type":"VEC2"},"accessor_43":{"bufferView":"bufferView_1","byteOffset":111912,"byteStride":0,"componentType":5123,"count":7608,"min":[0],"max":[4697],"type":"SCALAR"},"accessor_44":{"bufferView":"bufferView_0","byteOffset":787328,"byteStride":0,"componentType":5126,"count":680,"min":[-838,16,-302],"max":[62,440,1198],"type":"VEC3"},"accessor_45":{"bufferView":"bufferView_0","byteOffset":795488,"byteStride":0,"componentType":5126,"count":680,"min":[0,-0.8506510257720947,0.5257310271263123],"max":[0,-0.8506510257720947,0.5257310271263123],"type":"VEC3"},"accessor_46":{"bufferView":"bufferView_0","byteOffset":803648,"byteStride":0,"componentType":5126,"count":680,"min":[-12.00570011138916,0.008429000154137611],"max":[6.008709907531738,2.078130006790161],"type":"VEC2"},"accessor_47":{"bufferView":"bufferView_1","byteOffset":127128,"byteStride":0,"componentType":5123,"count":1020,"min":[0],"max":[679],"type":"SCALAR"},"accessor_48":{"bufferView":"bufferView_0","byteOffset":809088,"byteStride":0,"componentType":5126,"count":2708,"min":[-841,83,-314],"max":[65,390,1199],"type":"VEC3"},"accessor_49":{"bufferView":"bufferView_0","byteOffset":841584,"byteStride":0,"componentType":5126,"count":2708,"min":[0,-0.8506510257720947,0.2388560026884079],"max":[0.864188015460968,-0.44286298751831055,0.5257310271263123],"type":"VEC3"},"accessor_50":{"bufferView":"bufferView_0","byteOffset":874080,"byteStride":0,"componentType":5126,"count":2708,"min":[-0.6640629768371582,-1.2031300067901611],"max":[0.6640629768371582,3.6875],"type":"VEC2"},"accessor_51":{"bufferView":"bufferView_1","byteOffset":129168,"byteStride":0,"componentType":5123,"count":5100,"min":[0],"max":[2707],"type":"SCALAR"},"accessor_52":{"bufferView":"bufferView_0","byteOffset":895744,"byteStride":0,"componentType":5126,"count":594,"min":[-838,72,-306],"max":[62,384,1202],"type":"VEC3"},"accessor_53":{"bufferView":"bufferView_0","byteOffset":902872,"byteStride":0,"componentType":5126,"count":594,"min":[0,-0.8506510257720947,0.5257310271263123],"max":[0,-0.8506510257720947,0.5257310271263123],"type":"VEC3"},"accessor_54":{"bufferView":"bufferView_0","byteOffset":910000,"byteStride":0,"componentType":5126,"count":594,"min":[-3.197920083999634,-1.09375],"max":[2.5130200386047363,5.0625],"type":"VEC2"},"accessor_55":{"bufferView":"bufferView_1","byteOffset":139368,"byteStride":0,"componentType":5123,"count":918,"min":[0],"max":[593],"type":"SCALAR"},"accessor_56":{"bufferView":"bufferView_0","byteOffset":914752,"byteStride":0,"componentType":5126,"count":4,"min":[-478,0,1200],"max":[-298,306,1200],"type":"VEC3"},"accessor_57":{"bufferView":"bufferView_0","byteOffset":914800,"byteStride":0,"componentType":5126,"count":4,"min":[0,-0.8506510257720947,0.5257310271263123],"max":[0,-0.8506510257720947,0.5257310271263123],"type":"VEC3"},"accessor_58":{"bufferView":"bufferView_0","byteOffset":914848,"byteStride":0,"componentType":5126,"count":4,"min":[-1.0022300481796265,0.0039059999398887157],"max":[0.002232189988717437,1],"type":"VEC2"},"accessor_59":{"bufferView":"bufferView_1","byteOffset":141204,"byteStride":0,"componentType":5123,"count":6,"min":[0],"max":[3],"type":"SCALAR"},"accessor_60":{"bufferView":"bufferView_0","byteOffset":914880,"byteStride":0,"componentType":5126,"count":2212,"min":[-667.2100219726562,133.0800018310547,397.90399169921875],"max":[-108.79000091552734,180.50799560546875,409.614013671875],"type":"VEC3"},"accessor_61":{"bufferView":"bufferView_0","byteOffset":941424,"byteStride":0,"componentType":5126,"count":2212,"min":[-0.7165669798851013,-1,-0.16245999932289124],"max":[0,0.9510560035705566,0.5257310271263123],"type":"VEC3"},"accessor_62":{"bufferView":"bufferView_0","byteOffset":967968,"byteStride":0,"componentType":5126,"count":2212,"min":[0.00390625,1],"max":[0.9804689884185791,1.996093988418579],"type":"VEC2"},"accessor_63":{"bufferView":"bufferView_1","byteOffset":141216,"byteStride":0,"componentType":5123,"count":10284,"min":[0],"max":[2211],"type":"SCALAR"}},"asset":{"generator":"obj2gltf","profile":{"api":"WebGL","version":"1.0"},"version":"1.0","premultipliedAlpha":true},"buffers":{"buffer":{"byteLength":1147448,"uri":"data:application/octet-stream;base64,","type":"arraybuffer"}},"bufferViews":{"bufferView_0":{"buffer":"buffer","byteLength":985664,"byteOffset":0,"target":34962},"bufferView_1":{"buffer":"buffer","byteLength":161784,"byteOffset":985664,"target":34963}},"extensionsUsed":[],"images":{},"materials":{"default":{"technique":"technique0","values":{"ambient":[0,0,0,1],"diffuse":[0.5,0.5,0.5,1],"emission":[0,0,0,1],"specular":[0,0,0,1],"shininess":0,"transparency":1}}},"meshes":{"Lampe_4.MDL.Ski_16":{"name":"Lampe_4.MDL.Ski_16","primitives":[{"attributes":{"POSITION":"accessor_0","NORMAL":"accessor_1","TEXCOORD_0":"accessor_2"},"indices":"accessor_3","material":"default","mode":4}]},"Lampe_4.MDL.Ski_17":{"name":"Lampe_4.MDL.Ski_17","primitives":[{"attributes":{"POSITION":"accessor_4","NORMAL":"accessor_5","TEXCOORD_0":"accessor_6"},"indices":"accessor_7","material":"default","mode":4}]},"Lampe_4.MDL.Ski_18":{"name":"Lampe_4.MDL.Ski_18","primitives":[{"attributes":{"POSITION":"accessor_8","NORMAL":"accessor_9","TEXCOORD_0":"accessor_10"},"indices":"accessor_11","material":"default","mode":4}]},"Lampe_4.MDL.Ski_19":{"name":"Lampe_4.MDL.Ski_19","primitives":[{"attributes":{"POSITION":"accessor_12","NORMAL":"accessor_13","TEXCOORD_0":"accessor_14"},"indices":"accessor_15","material":"default","mode":4}]},"Lampe_4.MDL.Ski_20":{"name":"Lampe_4.MDL.Ski_20","primitives":[{"attributes":{"POSITION":"accessor_16","NORMAL":"accessor_17","TEXCOORD_0":"accessor_18"},"indices":"accessor_19","material":"default","mode":4}]},"Lampe_4.MDL.Ski_21":{"name":"Lampe_4.MDL.Ski_21","primitives":[{"attributes":{"POSITION":"accessor_20","NORMAL":"accessor_21","TEXCOORD_0":"accessor_22"},"indices":"accessor_23","material":"default","mode":4}]},"Lampe_4.MDL.Ski_22":{"name":"Lampe_4.MDL.Ski_22","primitives":[{"attributes":{"POSITION":"accessor_24","NORMAL":"accessor_25","TEXCOORD_0":"accessor_26"},"indices":"accessor_27","material":"default","mode":4}]},"Lampe_4.MDL.Ski_23":{"name":"Lampe_4.MDL.Ski_23","primitives":[{"attributes":{"POSITION":"accessor_28","NORMAL":"accessor_29","TEXCOORD_0":"accessor_30"},"indices":"accessor_31","material":"default","mode":4}]},"Lampe_4.MDL.Ski_24":{"name":"Lampe_4.MDL.Ski_24","primitives":[{"attributes":{"POSITION":"accessor_32","NORMAL":"accessor_33","TEXCOORD_0":"accessor_34"},"indices":"accessor_35","material":"default","mode":4}]},"Lampe_4.MDL.Ski_25":{"name":"Lampe_4.MDL.Ski_25","primitives":[{"attributes":{"POSITION":"accessor_36","NORMAL":"accessor_37","TEXCOORD_0":"accessor_38"},"indices":"accessor_39","material":"default","mode":4}]},"Lampe_4.MDL.Ski_26":{"name":"Lampe_4.MDL.Ski_26","primitives":[{"attributes":{"POSITION":"accessor_40","NORMAL":"accessor_41","TEXCOORD_0":"accessor_42"},"indices":"accessor_43","material":"default","mode":4}]},"Lampe_4.MDL.Ski_27":{"name":"Lampe_4.MDL.Ski_27","primitives":[{"attributes":{"POSITION":"accessor_44","NORMAL":"accessor_45","TEXCOORD_0":"accessor_46"},"indices":"accessor_47","material":"default","mode":4}]},"Lampe_4.MDL.Ski_28":{"name":"Lampe_4.MDL.Ski_28","primitives":[{"attributes":{"POSITION":"accessor_48","NORMAL":"accessor_49","TEXCOORD_0":"accessor_50"},"indices":"accessor_51","material":"default","mode":4}]},"Lampe_4.MDL.Ski_29":{"name":"Lampe_4.MDL.Ski_29","primitives":[{"attributes":{"POSITION":"accessor_52","NORMAL":"accessor_53","TEXCOORD_0":"accessor_54"},"indices":"accessor_55","material":"default","mode":4}]},"Lampe_4.MDL.Ski_30":{"name":"Lampe_4.MDL.Ski_30","primitives":[{"attributes":{"POSITION":"accessor_56","NORMAL":"accessor_57","TEXCOORD_0":"accessor_58"},"indices":"accessor_59","material":"default","mode":4}]},"Lampe_4.MDL.Ski_31":{"name":"Lampe_4.MDL.Ski_31","primitives":[{"attributes":{"POSITION":"accessor_60","NORMAL":"accessor_61","TEXCOORD_0":"accessor_62"},"indices":"accessor_63","material":"default","mode":4}]}},"nodes":{"Lampe_4.MDL.Ski":{"name":"Lampe_4.MDL.Ski","meshes":["Lampe_4.MDL.Ski_16"],"children":[],"matrix":[1,0,0,0,0,1,0,0,0,0,1,0,0,0,0,1]},"Lampe_4.MDL.Ski_1":{"name":"Lampe_4.MDL.Ski_1","meshes":["Lampe_4.MDL.Ski_17"],"children":[],"matrix":[1,0,0,0,0,1,0,0,0,0,1,0,0,0,0,1]},"Lampe_4.MDL.Ski_2":{"name":"Lampe_4.MDL.Ski_2","meshes":["Lampe_4.MDL.Ski_18"],"children":[],"matrix":[1,0,0,0,0,1,0,0,0,0,1,0,0,0,0,1]},"Lampe_4.MDL.Ski_3":{"name":"Lampe_4.MDL.Ski_3","meshes":["Lampe_4.MDL.Ski_19"],"children":[],"matrix":[1,0,0,0,0,1,0,0,0,0,1,0,0,0,0,1]},"Lampe_4.MDL.Ski_4":{"name":"Lampe_4.MDL.Ski_4","meshes":["Lampe_4.MDL.Ski_20"],"children":[],"matrix":[1,0,0,0,0,1,0,0,0,0,1,0,0,0,0,1]},"Lampe_4.MDL.Ski_5":{"name":"Lampe_4.MDL.Ski_5","meshes":["Lampe_4.MDL.Ski_21"],"children":[],"matrix":[1,0,0,0,0,1,0,0,0,0,1,0,0,0,0,1]},"Lampe_4.MDL.Ski_6":{"name":"Lampe_4.MDL.Ski_6","meshes":["Lampe_4.MDL.Ski_22"],"children":[],"matrix":[1,0,0,0,0,1,0,0,0,0,1,0,0,0,0,1]},"Lampe_4.MDL.Ski_7":{"name":"Lampe_4.MDL.Ski_7","meshes":["Lampe_4.MDL.Ski_23"],"children":[],"matrix":[1,0,0,0,0,1,0,0,0,0,1,0,0,0,0,1]},"Lampe_4.MDL.Ski_8":{"name":"Lampe_4.MDL.Ski_8","meshes":["Lampe_4.MDL.Ski_24"],"children":[],"matrix":[1,0,0,0,0,1,0,0,0,0,1,0,0,0,0,1]},"Lampe_4.MDL.Ski_9":{"name":"Lampe_4.MDL.Ski_9","meshes":["Lampe_4.MDL.Ski_25"],"children":[],"matrix":[1,0,0,0,0,1,0,0,0,0,1,0,0,0,0,1]},"Lampe_4.MDL.Ski_10":{"name":"Lampe_4.MDL.Ski_10","meshes":["Lampe_4.MDL.Ski_26"],"children":[],"matrix":[1,0,0,0,0,1,0,0,0,0,1,0,0,0,0,1]},"Lampe_4.MDL.Ski_11":{"name":"Lampe_4.MDL.Ski_11","meshes":["Lampe_4.MDL.Ski_27"],"children":[],"matrix":[1,0,0,0,0,1,0,0,0,0,1,0,0,0,0,1]},"Lampe_4.MDL.Ski_12":{"name":"Lampe_4.MDL.Ski_12","meshes":["Lampe_4.MDL.Ski_28"],"children":[],"matrix":[1,0,0,0,0,1,0,0,0,0,1,0,0,0,0,1]},"Lampe_4.MDL.Ski_13":{"name":"Lampe_4.MDL.Ski_13","meshes":["Lampe_4.MDL.Ski_29"],"children":[],"matrix":[1,0,0,0,0,1,0,0,0,0,1,0,0,0,0,1]},"Lampe_4.MDL.Ski_14":{"name":"Lampe_4.MDL.Ski_14","meshes":["Lampe_4.MDL.Ski_30"],"children":[],"matrix":[1,0,0,0,0,1,0,0,0,0,1,0,0,0,0,1]},"Lampe_4.MDL.Ski_15":{"name":"Lampe_4.MDL.Ski_15","meshes":["Lampe_4.MDL.Ski_31"],"children":[],"matrix":[1,0,0,0,0,1,0,0,0,0,1,0,0,0,0,1]}},"samplers":{},"scene":"scene","scenes":{"scene":{"nodes":["Lampe_4.MDL.Ski","Lampe_4.MDL.Ski_1","Lampe_4.MDL.Ski_2","Lampe_4.MDL.Ski_3","Lampe_4.MDL.Ski_4","Lampe_4.MDL.Ski_5","Lampe_4.MDL.Ski_6","Lampe_4.MDL.Ski_7","Lampe_4.MDL.Ski_8","Lampe_4.MDL.Ski_9","Lampe_4.MDL.Ski_10","Lampe_4.MDL.Ski_11","Lampe_4.MDL.Ski_12","Lampe_4.MDL.Ski_13","Lampe_4.MDL.Ski_14","Lampe_4.MDL.Ski_15"]}},"textures":{},"animations":{},"cameras":{},"programs":{"program0":{"attributes":["a_position","a_normal","a_texcoord_0"],"fragmentShader":"fragmentShader0","vertexShader":"vertexShader0"}},"shaders":{"vertexShader0":{"type":35633,"uri":"data:text/plain;base64,"},"fragmentShader0":{"type":35632,"uri":"data:text/plain;base64,"}},"skins":{},"techniques":{"technique0":{"attributes":{"a_position":"position","a_normal":"normal","a_texcoord_0":"texcoord_0"},"parameters":{"modelViewMatrix":{"semantic":"MODELVIEW","type":35676},"projectionMatrix":{"semantic":"PROJECTION","type":35676},"normalMatrix":{"semantic":"MODELVIEWINVERSETRANSPOSE","type":35675},"ambient":{"type":35666},"diffuse":{"type":35666},"emission":{"type":35666},"specular":{"type":35666},"shininess":{"type":5126},"transparency":{"type":5126},"position":{"semantic":"POSITION","type":35665},"normal":{"semantic":"NORMAL","type":35665},"texcoord_0":{"semantic":"TEXCOORD_0","type":5126}},"program":"program0","states":{"enable":[2884,2929]},"uniforms":{"u_modelViewMatrix":"modelViewMatrix","u_projectionMatrix":"projectionMatrix","u_normalMatrix":"normalMatrix","u_ambient":"ambient","u_diffuse":"diffuse","u_emission":"emission","u_specular":"specular","u_shininess":"shininess","u_transparency":"transparency"}}}}
