{"accessors":{"accessor_0":{"bufferView":"bufferView_0","byteOffset":0,"byteStride":0,"componentType":5126,"count":22976,"min":[-2.9769959449768066,-5.0755839347839355,-2.2774128913879395],"max":[2.7567129135131836,2.2515580654144287,2.8369669914245605],"type":"VEC3"},"accessor_1":{"bufferView":"bufferView_0","byteOffset":275712,"byteStride":0,"componentType":5126,"count":22976,"min":[-0.9999194145202637,-0.999564528465271,-0.9999752044677734],"max":[0.9999194145202637,0.9993818998336792,0.9999752044677734],"type":"VEC3"},"accessor_2":{"bufferView":"bufferView_1","byteOffset":0,"byteStride":0,"componentType":5123,"count":21216,"min":[0],"max":[14187],"type":"SCALAR"},"accessor_3":{"bufferView":"bufferView_1","byteOffset":42432,"byteStride":0,"componentType":5123,"count":2418,"min":[14188],"max":[15867],"type":"SCALAR"},"accessor_4":{"bufferView":"bufferView_1","byteOffset":47268,"byteStride":0,"componentType":5123,"count":672,"min":[15868],"max":[16315],"type":"SCALAR"},"accessor_5":{"bufferView":"bufferView_1","byteOffset":48612,"byteStride":0,"componentType":5123,"count":6660,"min":[16316],"max":[20879],"type":"SCALAR"},"accessor_6":{"bufferView":"bufferView_1","byteOffset":61932,"byteStride":0,"componentType":5123,"count":648,"min":[20880],"max":[21335],"type":"SCALAR"},"accessor_7":{"bufferView":"bufferView_1","byteOffset":63228,"byteStride":0,"componentType":5123,"count":588,"min":[21336],"max":[21727],"type":"SCALAR"},"accessor_8":{"bufferView":"bufferView_1","byteOffset":64404,"byteStride":0,"componentType":5123,"count":1152,"min":[21728],"max":[22495],"type":"SCALAR"},"accessor_9":{"bufferView":"bufferView_1","byteOffset":66708,"byteStride":0,"componentType":5123,"count":720,"min":[22496],"max":[22975],"type":"SCALAR"}},"asset":{"generator":"obj2gltf","profile":{"api":"WebGL","version":"1.0"},"version":"1.0","premultipliedAlpha":true},"buffers":{"buffer":{"byteLength":619572,"uri":"data:application/octet-stream;base64,","type":"arraybuffer"}},"bufferViews":{"bufferView_0":{"buffer":"buffer","byteLength":551424,"byteOffset":0,"target":34962},"bufferView_1":{"buffer":"buffer","byteLength":68148,"byteOffset":551424,"target":34963}},"extensionsUsed":[],"images":{},"materials":{"mat15":{"technique":"technique0","values":{"ambient":[0.81,0.85,0.86,1],"diffuse":[0.81,0.85,0.86,1],"emission":[0,0,0,1],"specular":[0,0,0,1],"shininess":0,"transparency":1}},"mat4":{"technique":"technique0","values":{"ambient":[0,0.74,0.83,1],"diffuse":[0,0.74,0.83,1],"emission":[0,0,0,1],"specular":[0,0,0,1],"shininess":0,"transparency":1}},"mat16":{"technique":"technique0","values":{"ambient":[0.47,0.56,0.61,1],"diffuse":[0.47,0.56,0.61,1],"emission":[0,0,0,1],"specular":[0,0,0,1],"shininess":0,"transparency":1}},"mat8":{"technique":"technique0","values":{"ambient":[0.96,0.26,0.21,1],"diffuse":[0.96,0.26,0.21,1],"emission":[0,0,0,1],"specular":[0,0,0,1],"shininess":0,"transparency":1}},"mat17":{"technique":"technique0","values":{"ambient":[0.27,0.35,0.39,1],"diffuse":[0.27,0.35,0.39,1],"emission":[0,0,0,1],"specular":[0,0,0,1],"shininess":0,"transparency":1}},"mat23":{"technique":"technique0","values":{"ambient":[0.1,0.1,0.1,1],"diffuse":[0.1,0.1,0.1,1],"emission":[0,0,0,1],"specular":[0,0,0,1],"shininess":0,"transparency":1}},"mat1":{"technique":"technique0","values":{"ambient":[0.61,0.15,0.69,1],"diffuse":[0.61,0.15,0.69,1],"emission":[0,0,0,1],"specular":[0,0,0,1],"shininess":0,"transparency":1}},"mat19":{"technique":"technique0","values":{"ambient":[0.87,0.6,0.27,1],"diffuse":[0.87,0.6,0.27,1],"emission":[0,0,0,1],"specular":[0,0,0,1],"shininess":0,"transparency":1}}},"meshes":{"Node-Mesh":{"name":"Node-Mesh","primitives":[{"attributes":{"POSITION":"accessor_0","NORMAL":"accessor_1"},"indices":"accessor_2","material":"mat15","mode":4},{"attributes":{"POSITION":"accessor_0","NORMAL":"accessor_1"},"indices":"accessor_3","material":"mat4","mode":4},{"attributes":{"POSITION":"accessor_0","NORMAL":"accessor_1"},"indices":"accessor_4","material":"mat16","mode":4},{"attributes":{"POSITION":"accessor_0","NORMAL":"accessor_1"},"indices":"accessor_5","material":"mat8","mode":4},{"attributes":{"POSITION":"accessor_0","NORMAL":"accessor_1"},"indices":"accessor_6","material":"mat17","mode":4},{"attributes":{"POSITION":"accessor_0","NORMAL":"accessor_1"},"indices":"accessor_7","material":"mat23","mode":4},{"attributes":{"POSITION":"accessor_0","NORMAL":"accessor_1"},"indices":"accessor_8","material":"mat1","mode":4},{"attributes":{"POSITION":"accessor_0","NORMAL":"accessor_1"},"indices":"accessor_9","material":"mat19","mode":4}]}},"nodes":{"Node":{"name":"Node","meshes":["Node-Mesh"],"children":[],"matrix":[1,0,0,0,0,1,0,0,0,0,1,0,0,0,0,1]}},"samplers":{},"scene":"scene","scenes":{"scene":{"nodes":["Node"]}},"textures":{},"animations":{},"cameras":{},"programs":{"program0":{"attributes":["a_position","a_normal"],"fragmentShader":"fragmentShader0","vertexShader":"vertexShader0"}},"shaders":{"vertexShader0":{"type":35633,"uri":"data:text/plain;base64,"},"fragmentShader0":{"type":35632,"uri":"data:text/plain;base64,"}},"skins":{},"techniques":{"technique0":{"attributes":{"a_position":"position","a_normal":"normal"},"parameters":{"modelViewMatrix":{"semantic":"MODELVIEW","type":35676},"projectionMatrix":{"semantic":"PROJECTION","type":35676},"normalMatrix":{"semantic":"MODELVIEWINVERSETRANSPOSE","type":35675},"ambient":{"type":35666},"diffuse":{"type":35666},"emission":{"type":35666},"specular":{"type":35666},"shininess":{"type":5126},"transparency":{"type":5126},"position":{"semantic":"POSITION","type":35665},"normal":{"semantic":"NORMAL","type":35665}},"program":"program0","states":{"enable":[2884,2929]},"uniforms":{"u_modelViewMatrix":"modelViewMatrix","u_projectionMatrix":"projectionMatrix","u_normalMatrix":"normalMatrix","u_ambient":"ambient","u_diffuse":"diffuse","u_emission":"emission","u_specular":"specular","u_shininess":"shininess","u_transparency":"transparency"}}}}
